<svg width="250" height="120" viewBox="0 0 250 120" fill="none" xmlns="http://www.w3.org/2000/svg">
<path d="M115.435 94.8971C116.34 94.8971 117.12 95.0011 117.742 95.2332C118.34 95.4413 118.838 95.7452 119.211 96.1213C119.593 96.5055 119.858 96.946 120.04 97.4902C120.215 98.0504 120.307 98.6588 120.307 99.3071V106.623C120.307 107.127 120.265 107.567 120.19 107.903C120.124 108.159 120.024 108.367 119.875 108.511C119.725 108.655 119.501 108.775 119.194 108.855C118.829 108.951 118.331 109 117.734 109H110.181C108.488 109 107.284 108.647 106.587 107.959C105.874 107.239 105.533 106.27 105.533 104.982C105.533 104.358 105.617 103.805 105.783 103.333C105.932 102.901 106.173 102.54 106.505 102.236C106.845 101.924 107.31 101.684 107.89 101.516C108.513 101.332 109.293 101.236 110.206 101.236H118.647V99.3234C118.647 98.5311 118.39 97.8501 117.892 97.3058C117.361 96.7215 116.522 96.434 115.401 96.434H106.505V94.8971H115.435ZM168.759 94.8971C170.701 94.8971 172.186 95.4493 173.315 96.5939C174.435 97.7304 175.008 99.5311 175 101.948C175 104.373 174.427 106.175 173.315 107.311C172.195 108.448 170.709 109 168.759 109H165.373C163.414 109 161.912 108.448 160.8 107.311C159.696 106.183 159.132 104.373 159.132 101.948C159.132 99.523 159.696 97.7223 160.8 96.5857C161.912 95.4493 163.414 94.8971 165.373 94.8971H168.759ZM85.4653 90.1989C86.4031 90.1989 87.1835 90.3584 87.7645 90.6786C88.3123 90.9827 88.7271 91.5034 89.0341 92.2878L95.6153 108.992H93.2418L90.437 101.828H80.2617L77.3317 108.992H75L81.8304 92.2959C82.1541 91.5195 82.5858 90.9747 83.1336 90.6786C83.7228 90.3585 84.5028 90.1989 85.4653 90.1989ZM134.233 94.889H142.159C144.101 94.889 145.579 95.4411 146.682 96.5776C147.786 97.7222 148.35 99.5156 148.35 101.933C148.35 104.358 147.786 106.167 146.682 107.295C145.57 108.432 144.092 108.984 142.15 108.984H137.685C135.943 108.984 134.681 108.536 133.826 107.6C132.955 106.655 132.523 105.126 132.523 103.061V88.1334H134.233V94.889ZM109.752 102.829C109.179 102.837 108.5 102.893 107.99 103.205C107.982 103.205 107.982 103.213 107.974 103.213C107.667 103.397 107.426 103.678 107.301 104.086C107.277 104.126 107.26 104.165 107.26 104.213V104.229C107.243 104.277 107.226 104.35 107.218 104.406C107.21 104.421 107.21 104.43 107.21 104.445V104.462C107.193 104.566 107.185 104.678 107.185 104.798C107.185 105.558 107.426 106.191 107.916 106.679C108.414 107.175 109.185 107.423 110.206 107.423H116.995C118.015 107.423 118.647 106.839 118.647 105.887H118.663V102.829H109.752ZM134.241 102.908C134.241 104.445 134.573 105.55 135.262 106.287C135.959 107.039 137.097 107.423 138.64 107.423H141.819C143.454 107.423 144.682 106.959 145.479 106.055C146.251 105.174 146.616 103.829 146.624 101.94C146.624 100.051 146.259 98.6983 145.487 97.81C144.699 96.8896 143.462 96.4258 141.827 96.4258H134.241V102.908ZM165.671 96.4258C164.036 96.4259 162.808 96.8898 162.012 97.81C161.248 98.6983 160.874 100.059 160.874 101.94C160.874 103.821 161.248 105.174 162.012 106.055C162.8 106.959 164.028 107.423 165.671 107.423H168.451C170.095 107.423 171.323 106.959 172.112 106.055C172.884 105.174 173.257 103.829 173.249 101.94C173.249 100.051 172.875 98.6983 172.112 97.81C171.323 96.8896 170.095 96.4258 168.451 96.4258H165.671ZM85.4409 92.2959C84.6442 92.2959 84.0219 92.6959 83.6982 93.4162L80.9178 100.228H89.8226L87.1673 93.4478C86.8603 92.7036 86.2458 92.296 85.4409 92.2959ZM125.004 12C131.498 12 137.789 12.2027 143.878 12.6091C150.168 13.2187 155.242 18.0949 155.648 24.3929C156.054 30.4879 156.257 36.7864 156.257 43.2877C156.257 49.789 156.054 56.0875 155.648 62.1825C155.039 68.4805 150.168 73.5599 143.878 73.9663C137.789 74.3727 131.498 74.5754 125.004 74.5754C118.51 74.5754 112.219 74.3727 106.13 73.9663C99.8396 73.3567 94.7659 68.4805 94.3599 62.1825C93.954 56.0875 93.7515 49.789 93.7515 43.2877C93.7515 36.7864 93.954 30.4879 94.3599 24.3929C94.7659 18.0949 99.8396 13.0155 106.13 12.6091C112.219 12.2027 118.51 12 125.004 12ZM125.004 23.2308C120.885 23.231 117.224 26.6673 117.223 30.7909C117.223 32.3946 117.681 33.7693 118.368 34.9148C118.597 35.373 118.826 35.8315 118.826 36.2897C118.597 38.1224 118.139 40.1838 116.995 41.7875C116.079 43.6203 114.706 44.995 113.104 46.1405C112.647 46.3695 112.189 46.5987 111.732 46.5988H111.045C107.155 46.8279 103.951 50.0353 103.722 53.9298C103.494 58.2827 106.926 61.7201 111.274 61.7201C114.249 61.7201 116.766 60.1161 118.139 57.5963C118.368 57.1381 118.826 56.6797 119.284 56.6797C121.114 55.7634 122.945 55.3048 125.004 55.3047C127.064 55.3047 128.895 55.7633 130.726 56.6797C131.183 56.9088 131.641 57.3672 131.87 57.5963C133.014 60.1161 135.76 61.7201 138.735 61.7201C143.083 61.7201 146.516 58.2827 146.287 53.9298C145.829 50.0353 142.625 46.8279 138.735 46.5988H138.048C137.591 46.5988 137.134 46.5985 136.676 46.1405C135.074 44.995 133.7 43.6203 132.785 41.7875C131.641 40.1839 130.954 38.3513 130.954 36.2897C130.954 35.8315 130.955 35.373 131.412 34.9148C132.327 33.7693 132.786 32.1654 132.557 30.5618C132.557 26.4381 129.123 23.2308 125.004 23.2308ZM124.775 38.5803C125.69 38.5803 126.378 38.8096 127.064 39.2678C128.437 40.4132 129.581 41.5588 130.497 43.1624C131.412 44.7661 131.87 46.37 132.099 47.9737C132.328 48.8899 132.099 49.8062 131.641 50.4934C131.183 51.1807 130.496 51.8684 129.81 52.0975C128.208 52.7848 126.606 53.0142 124.775 53.0142C122.945 53.0141 121.343 52.5557 119.741 52.0975C119.055 51.8684 118.368 51.1807 117.91 50.4934C117.453 49.8062 117.224 48.89 117.452 47.9737C117.681 46.37 118.139 44.7661 119.055 43.1624C119.97 41.5588 121.114 40.4132 122.487 39.2678C123.174 38.8097 124.089 38.5804 124.775 38.5803Z" fill="white"/>
</svg>
