<svg width="250" height="120" viewBox="0 0 250 120" fill="none" xmlns="http://www.w3.org/2000/svg">
<path d="M56.3003 63.2627C56.3003 76.0199 45.7081 86.3597 32.6534 86.3597C19.5987 86.3597 9 76.0199 9 63.2627C9 52.7915 16.1381 43.9429 25.9159 41.1182C21.8446 45.6968 17.4186 52.5222 17.4186 60.6219C17.4186 68.7216 24.2349 75.8688 32.6534 75.8688C41.072 75.8688 47.8949 69.0435 47.8949 60.6219C47.8949 52.2003 43.4689 45.6968 39.3975 41.1182C49.1754 43.9495 56.3003 52.7915 56.3003 63.2627Z" fill="white"/>
<path d="M40.1792 60.891C38.6688 60.7793 37.1256 60.7071 35.5496 60.6677C35.392 60.6677 35.2541 60.7925 35.2541 60.9567C35.2541 62.5201 35.241 64.0705 35.2278 65.5879C35.2278 65.7456 35.0965 65.8704 34.9389 65.8638C34.1771 65.8573 33.4154 65.8441 32.6405 65.8441C31.8657 65.8441 31.1105 65.8507 30.3487 65.8638C30.1911 65.8638 30.0664 65.7456 30.0598 65.5879C30.0401 64.0705 30.0335 62.5201 30.0335 60.9567C30.0335 60.799 29.9022 60.6677 29.738 60.6677C28.162 60.7071 26.6188 60.7793 25.1085 60.891C24.9443 60.9041 24.8064 60.7793 24.8064 60.6085C24.8064 59.7677 24.8327 57.37 24.8655 55.9839C24.8655 55.8393 24.9837 55.7277 25.1282 55.7145C26.6517 55.5831 28.208 55.4912 29.7906 55.4452C29.9416 55.4452 30.0598 55.3138 30.0664 55.1627C30.0795 53.5664 30.1058 52.0095 30.1386 50.4855C30.1386 50.3344 30.2634 50.2096 30.4144 50.2096C31.1499 50.1899 31.8854 50.1768 32.634 50.1768C33.3826 50.1768 34.1246 50.1833 34.8667 50.2096C35.0177 50.2096 35.1425 50.3344 35.1425 50.4855C35.1753 52.0095 35.2016 53.5664 35.2147 55.1627C35.2147 55.3138 35.3395 55.4386 35.4905 55.4452C37.0731 55.4978 38.6294 55.5831 40.1529 55.7145C40.2974 55.7277 40.409 55.8393 40.4156 55.9839C40.455 57.37 40.4681 59.7677 40.4747 60.6085C40.4747 60.7728 40.3368 60.8976 40.1726 60.891H40.1792Z" fill="white"/>
<path d="M39.391 41.1178C37.2502 40.4872 34.9847 40.1587 32.6469 40.1587C30.3091 40.1587 28.0436 40.4872 25.9094 41.1178C29.4095 37.1895 32.6469 34.9297 32.6469 34.9297C32.6469 34.9297 35.8909 37.1895 39.391 41.1178Z" fill="white"/>
<path d="M85.7001 75.6187L74.9241 50.9056L73.1116 71.1517C73.0066 72.1765 73.3021 73.0108 73.9982 73.6545C74.6942 74.2983 75.5348 74.6465 76.5395 74.6924V75.08H68.8433V74.6924C69.8217 74.6399 70.6426 74.2852 71.3058 73.6151C71.969 72.9451 72.3565 72.1108 72.4615 71.1123L74.3856 49.8217C73.8997 48.8232 73.289 48.0349 72.56 47.4569C71.8311 46.8788 70.8855 46.5897 69.7298 46.5897V46.2021H78.9692L88.3596 67.9525L97.7501 46.2021H104.947V46.5897C104.126 46.5897 103.43 46.8328 102.866 47.3189C102.301 47.805 102.045 48.4751 102.097 49.3225L104.061 72.1108C104.185 72.9845 104.606 73.6348 105.308 74.075C106.011 74.5151 106.714 74.7319 107.403 74.7319V75.08H95.4714V74.7319C95.9048 74.7319 96.3579 74.6333 96.8176 74.4231C97.2773 74.2129 97.6582 73.9239 97.9537 73.5363C98.2492 73.1553 98.3608 72.702 98.282 72.1896L96.3973 50.9385L85.7001 75.6121V75.6187Z" fill="white"/>
<path d="M115.874 75.5464C114.101 75.5464 112.531 75.1063 111.159 74.2392C109.786 73.3655 108.716 72.1568 107.948 70.5999C107.179 69.0496 106.792 67.2693 106.792 65.2658C106.792 63.2622 107.212 61.4163 108.059 59.8725C108.906 58.3353 110.069 57.1332 111.54 56.2726C113.017 55.4121 114.692 54.9785 116.563 54.9785C118.126 54.9785 119.518 55.2873 120.74 55.9048C121.961 56.5223 122.933 57.3894 123.662 58.5061C124.397 59.6229 124.811 60.9104 124.916 62.3754L124.956 62.9534H112.026V63.1439C112.026 65.8636 112.63 68.0379 113.832 69.6671C115.04 71.2962 116.655 72.1108 118.684 72.1108C119.912 72.1108 121.088 71.8086 122.204 71.2043C123.32 70.5999 124.22 69.7853 124.916 68.7605L125.264 68.8788C124.824 70.186 124.148 71.3422 123.229 72.3473C122.303 73.3458 121.213 74.1341 119.958 74.6925C118.698 75.2574 117.345 75.5399 115.88 75.5399L115.874 75.5464ZM112.065 62.3819H119.88C119.88 60.3586 119.551 58.7098 118.901 57.4551C118.244 56.1938 117.325 55.5697 116.15 55.5697C114.974 55.5697 114.081 56.1872 113.339 57.4157C112.597 58.6441 112.17 60.3061 112.072 62.3819H112.065Z" fill="white"/>
<path d="M140.657 76.5453L140.618 71.0798C140.001 72.4133 139.081 73.5103 137.847 74.3709C136.619 75.2315 135.292 75.6584 133.88 75.6584C132.468 75.6584 131.254 75.2183 130.15 74.3512C129.047 73.4775 128.174 72.2819 127.537 70.7513C126.893 69.2273 126.572 67.4996 126.572 65.5748C126.572 63.4202 126.979 61.548 127.786 59.9582C128.594 58.3685 129.717 57.1401 131.155 56.2795C132.593 55.419 134.248 54.9854 136.12 54.9854C137.17 54.9854 138.031 55.1431 138.7 55.465C139.364 55.7868 139.968 56.3321 140.506 57.1007V49.671C140.506 48.7447 140.217 48.0024 139.639 47.4375C139.061 46.8725 138.313 46.5901 137.387 46.5901V46.2025H141.314C142.594 46.2025 143.573 46.0777 144.236 45.8215C144.906 45.5653 145.379 45.204 145.661 44.7441H146.049V71.6119C146.049 72.5381 146.331 73.2804 146.896 73.8454C147.46 74.4103 148.216 74.6928 149.168 74.6928V75.0804H145.241C144.111 75.0804 143.218 75.1986 142.568 75.4285C141.911 75.6584 141.406 76.0329 141.045 76.5453H140.664H140.657ZM136.001 74.1213C136.592 74.1213 137.19 73.9373 137.788 73.5629C138.392 73.1885 138.937 72.6958 139.423 72.0783C139.909 71.4608 140.27 70.8104 140.5 70.1141V60.7203C140.375 59.1831 139.994 57.9481 139.364 57.0218C138.733 56.1022 137.919 55.6358 136.921 55.6358C135.588 55.6358 134.55 56.4832 133.802 58.178C133.079 59.8728 132.725 62.3757 132.725 65.6865C132.725 71.3097 133.815 74.1147 135.995 74.1147L136.001 74.1213Z" fill="white"/>
<path d="M148.813 75.0803L148.852 74.6927H148.892C149.817 74.6927 150.559 74.4497 151.124 73.9635C151.689 73.4774 151.971 72.768 151.971 71.8483V49.6775C151.971 48.7512 151.689 48.0089 151.124 47.444C150.559 46.879 149.817 46.5966 148.892 46.5966L148.852 46.209H169.478L170.634 53.9474H170.247C169.478 49.1191 166.438 46.7082 161.125 46.7082H157.895V57.8363H161.355C162.636 57.8363 163.667 57.4488 164.435 56.6605C165.203 55.8787 165.591 54.8474 165.591 53.5598H165.978V63.0325H165.591C165.565 61.6464 165.131 60.5165 164.284 59.6428C163.437 58.7692 162.321 58.3356 160.935 58.3356H157.895V71.8483C157.895 73.6745 158.794 74.581 160.587 74.581H162.202C164.691 74.581 166.668 73.9438 168.132 72.6563C169.597 71.3753 170.529 69.3586 170.943 66.6127H171.33L170.174 75.0803H148.813Z" fill="white" fill-opacity="0.7"/>
<path d="M181.798 75.619C180.051 75.619 178.501 75.192 177.142 74.3314C175.782 73.4709 174.725 72.2753 173.963 70.7315C173.208 69.1944 172.827 67.4338 172.827 65.4565C172.827 63.4792 173.248 61.5873 174.095 60.0107C174.942 58.4341 176.104 57.1991 177.575 56.3123C179.053 55.4255 180.714 54.9854 182.559 54.9854C184.713 54.9854 186.499 55.57 187.924 56.7393C189.349 57.9086 190.203 59.4918 190.485 61.4954L185.869 64.077C185.869 61.4625 185.534 59.3801 184.864 57.8429C184.201 56.332 183.262 55.57 182.054 55.57C181.233 55.57 180.517 55.905 179.919 56.5685C179.315 57.2386 178.856 58.1385 178.534 59.2619C178.212 60.3917 178.055 61.6464 178.055 63.0325C178.055 64.7996 178.324 66.3631 178.862 67.7097C179.401 69.0564 180.156 70.1075 181.134 70.8629C182.113 71.6184 183.262 71.9994 184.602 71.9994C185.83 71.9994 187.005 71.6906 188.121 71.0731C189.238 70.4556 190.157 69.6214 190.873 68.5703L191.254 68.6885C190.82 70.0746 190.124 71.2899 189.179 72.3278C188.226 73.3658 187.117 74.1738 185.849 74.7518C184.582 75.3299 183.229 75.619 181.791 75.619H181.798Z" fill="white" fill-opacity="0.7"/>
<path d="M190.84 75.0806V74.693C191.739 74.693 192.409 74.5091 192.862 74.1347C193.309 73.7602 193.604 73.2807 193.749 72.6895C193.887 72.0982 193.959 71.461 193.959 70.7647V49.6778C193.959 48.7516 193.67 48.0093 193.092 47.4443C192.514 46.8794 191.766 46.5969 190.84 46.5969V46.2093H194.767C196.074 46.2093 197.072 46.0714 197.768 45.7889C198.411 45.5064 198.858 45.1583 199.114 44.751H199.501V59.3804C200.197 58.0206 201.209 56.9498 202.542 56.1681C203.875 55.3864 205.3 54.9922 206.817 54.9922C208.025 54.9922 209.049 55.2681 209.897 55.82C210.744 56.3718 211.394 57.1075 211.84 58.0337C212.287 58.96 212.51 59.9979 212.51 61.1541V71.6253C212.51 72.5778 212.799 73.3267 213.377 73.8785C213.955 74.4303 214.703 74.7062 215.629 74.7062V75.0938H203.895V74.7062C204.82 74.7062 205.569 74.4303 206.147 73.8785C206.725 73.3267 207.014 72.5778 207.014 71.6253V60.7731C207.014 60.2081 206.935 59.5972 206.784 58.9469C206.633 58.2899 206.357 57.7316 205.956 57.252C205.556 56.779 204.998 56.5426 204.282 56.5426C203.619 56.5426 202.982 56.7396 202.378 57.1403C201.773 57.5411 201.228 58.0337 200.742 58.625C200.257 59.2162 199.843 59.8074 199.515 60.3921V70.7844C199.515 71.4807 199.587 72.118 199.725 72.7092C199.863 73.3004 200.158 73.7799 200.611 74.1544C201.058 74.5288 201.734 74.7128 202.634 74.7128V75.1003H190.86L190.84 75.0806Z" fill="white" fill-opacity="0.7"/>
<path d="M226.359 75.6192C224.258 75.6192 222.419 75.1988 220.837 74.3514C219.261 73.504 218.033 72.3084 217.159 70.7712C216.286 69.2275 215.853 67.4078 215.853 65.3057C215.853 63.2036 216.286 61.3774 217.159 59.8402C218.033 58.2965 219.254 57.1074 220.837 56.26C222.413 55.4126 224.258 54.9922 226.359 54.9922C228.461 54.9922 230.299 55.4192 231.862 56.26C233.425 57.1074 234.647 58.303 235.52 59.8402C236.393 61.3774 236.827 63.2036 236.827 65.3057C236.827 67.4078 236.387 69.2341 235.52 70.7712C234.647 72.3084 233.432 73.504 231.862 74.3514C230.299 75.1988 228.461 75.6192 226.359 75.6192ZM226.32 75.12C227.22 75.12 227.988 74.6733 228.631 73.7733C229.268 72.8733 229.774 71.6778 230.129 70.1734C230.49 68.6691 230.667 67.0334 230.667 65.2663C230.667 63.3415 230.477 61.6401 230.109 60.1621C229.735 58.684 229.222 57.5344 228.572 56.7002C227.916 55.8659 227.18 55.4455 226.359 55.4455C225.486 55.4455 224.724 55.8922 224.068 56.7921C223.411 57.6921 222.905 58.8877 222.551 60.3723C222.189 61.8635 222.012 63.4926 222.012 65.2597C222.012 67.2108 222.203 68.9319 222.59 70.4165C222.971 71.9077 223.496 73.0573 224.146 73.8784C224.803 74.6996 225.525 75.1134 226.32 75.1134V75.12Z" fill="white" fill-opacity="0.7"/>
<path d="M237.576 52.8245H236.729V52.4238H238.889V52.8245H238.042V54.9726H237.569V52.8245H237.576Z" fill="white"/>
<path d="M241.588 54.9726V53.2844L240.748 54.6836H240.538L239.697 53.3041V54.9726H239.244V52.4238H239.631L240.643 54.1121L241.634 52.4238H242.022V54.9726H241.575H241.588Z" fill="white"/>
</svg>
